<?xml version="1.0" encoding="UTF-8" standalone="no"?>
<svg
   xmlns:dc="http://purl.org/dc/elements/1.1/"
   xmlns:cc="http://creativecommons.org/ns#"
   xmlns:rdf="http://www.w3.org/1999/02/22-rdf-syntax-ns#"
   xmlns:svg="http://www.w3.org/2000/svg"
   xmlns="http://www.w3.org/2000/svg"
   xmlns:sodipodi="http://sodipodi.sourceforge.net/DTD/sodipodi-0.dtd"
   xmlns:inkscape="http://www.inkscape.org/namespaces/inkscape"
   version="1.1"
   width="1000"
   height="369.03"
   viewBox="135.5 361.375 1000 369.03002"
   overflow="visible"
   enable-background="new 135.5 361.375 200 72"
   xml:space="preserve"
   id="svg2"
   inkscape:version="0.91 r13725"
   sodipodi:docname="Nike Outlined.svg"
   style="overflow:visible"><metadata
   id="metadata10"><rdf:RDF><cc:Work
       rdf:about=""><dc:format>image/svg+xml</dc:format><dc:type
         rdf:resource="http://purl.org/dc/dcmitype/StillImage" /><dc:title></dc:title></cc:Work></rdf:RDF></metadata><defs
   id="defs8" /><sodipodi:namedview
   pagecolor="#ffffff"
   bordercolor="#666666"
   borderopacity="1"
   objecttolerance="10"
   gridtolerance="10"
   guidetolerance="10"
   inkscape:pageopacity="0"
   inkscape:pageshadow="2"
   inkscape:window-width="1366"
   inkscape:window-height="705"
   id="namedview6"
   showgrid="false"
   inkscape:zoom="1"
   inkscape:cx="922.01748"
   inkscape:cy="183.77218"
   inkscape:window-x="-8"
   inkscape:window-y="-8"
   inkscape:window-maximized="1"
   inkscape:current-layer="svg2" />
<path
   style="color:#000000;font-style:normal;font-variant:normal;font-weight:normal;font-stretch:normal;font-size:medium;line-height:normal;font-family:sans-serif;text-indent:0;text-align:start;text-decoration:none;text-decoration-line:none;text-decoration-style:solid;text-decoration-color:#000000;letter-spacing:normal;word-spacing:normal;text-transform:none;direction:ltr;block-progression:tb;writing-mode:lr-tb;baseline-shift:baseline;text-anchor:start;white-space:normal;clip-rule:nonzero;display:inline;overflow:visible;visibility:visible;opacity:1;isolation:auto;mix-blend-mode:normal;color-interpolation:sRGB;color-interpolation-filters:linearRGB;solid-color:#000000;solid-opacity:1;fill:#000000;fill-opacity:1;fill-rule:nonzero;stroke:none;stroke-width:20.00000191;stroke-linecap:butt;stroke-linejoin:miter;stroke-miterlimit:20;stroke-dasharray:none;stroke-dashoffset:0;stroke-opacity:1;color-rendering:auto;image-rendering:auto;shape-rendering:auto;text-rendering:auto;enable-background:accumulate"
   d="m 287.43509,361.38671 c -1.74231,-0.0874 -3.54286,0.31605 -5.46295,1.42461 -0.56257,0.34053 -0.78597,0.52551 -0.9708,0.67019 -0.36967,0.28934 -0.48833,0.40737 -0.59743,0.50742 -0.21817,0.20009 -0.29345,0.27788 -0.36955,0.35424 -0.15222,0.15271 -0.24331,0.24904 -0.35233,0.36382 -0.21801,0.22953 -0.46755,0.49809 -0.78124,0.83676 -0.62737,0.67736 -1.4917,1.61861 -2.54477,2.77072 -2.10616,2.30423 -4.95921,5.44196 -8.0288,8.82727 -6.13914,6.7706 -13.11797,14.50297 -16.68945,18.51427 l -0.002,0.002 -0.002,0.002 c -48.02954,54.00175 -76.09484,93.60045 -94.37701,133.88522 -21.35682,47.06445 -27.64874,90.92765 -15.93885,126.00196 l 0.002,0 c 3.80832,11.4028 9.63112,21.82862 17.79048,32.08833 4.05927,5.10595 11.38867,12.44067 16.4884,16.49606 l 0.002,0.002 0.002,0.002 c 20.53289,16.31197 46.72207,24.89503 77.50565,26.11796 34.3163,1.36313 75.50891,-6.48875 121.18239,-22.52769 l 0.002,-0.002 c 17.71496,-6.21972 28.10993,-10.41563 65.47491,-26.38987 117.87438,-50.40773 290.34525,-124.19311 433.33996,-185.38204 71.49735,-30.59447 135.6247,-58.03893 181.876,-77.83882 23.1257,-9.89995 41.7819,-17.88922 54.6563,-23.40468 6.4371,-2.75774 11.4291,-4.89781 14.8129,-6.3495 1.692,-0.72586 2.9817,-1.27776 3.8526,-1.65248 0.4355,-0.18736 0.7651,-0.33104 0.9957,-0.43083 0.1154,-0.0499 0.204,-0.0878 0.2834,-0.12255 0.04,-0.0174 0.074,-0.0288 0.136,-0.0594 6.6931,-3.27334 6.2439,-9.43334 5.1183,-12.48646 -1.1257,-3.05313 -4.8588,-7.28317 -11.3376,-6.01823 -0.1017,0.0237 -0.1343,0.0317 -0.1686,0.0402 -0.069,0.0171 -0.1096,0.0289 -0.1607,0.0422 -0.1026,0.0264 -0.2261,0.0575 -0.3869,0.0996 -0.3216,0.0842 -0.7864,0.20767 -1.3997,0.36955 -1.2266,0.32376 -3.0425,0.80346 -5.4228,1.43419 -4.7604,1.26146 -11.7741,3.12366 -20.8005,5.52039 -18.0532,4.79345 -44.1568,11.72933 -76.3663,20.2912 -64.41908,17.12376 -153.2656,40.75183 -250.98908,66.7521 -97.72062,25.99694 -187.23009,49.78543 -252.71622,67.16951 -32.7433,8.6921 -59.48086,15.78224 -78.23519,20.74693 -9.37716,2.48235 -16.75944,4.43392 -21.8939,5.78654 -5.13446,1.35263 -9.01989,2.33463 -8.16664,2.13693 -46.37307,10.68119 -83.36004,9.07418 -106.80985,-2.41457 l -0.002,0 c -13.09102,-6.41693 -25.34226,-18.58238 -32.23003,-32.17259 l -0.002,-0.002 c 0,0 0,-0.002 0,-0.002 -10.03063,-19.82316 -11.42907,-46.35563 -2.56967,-78.78282 l 0,-0.002 0,-0.002 c 5.48481,-20.09842 15.83127,-44.01273 27.76087,-63.99477 l 0.002,-0.002 c 0.73751,-1.23603 1.39768,-2.3586 1.89375,-3.21879 0.24803,-0.43009 0.44958,-0.78492 0.63572,-1.12399 0.093,-0.16954 0.17132,-0.31039 0.31977,-0.60891 2.65648,-5.63584 -0.23686,-9.89301 -1.88418,-11.46204 -1.64731,-1.56902 -3.38713,-2.16175 -3.38728,-2.16181 -1.01702,-0.35906 -2.04129,-0.58898 -3.08667,-0.64146 z m -0.38488,9.81147 c 0.05,0 -1.09009,1.97512 -2.52563,4.38108 -12.4048,20.778 -23.01839,45.25167 -28.80062,66.43997 -9.28859,33.99814 -8.16745,63.175 3.28199,85.79867 7.89805,15.58609 21.43691,29.08698 36.66281,36.54984 26.65532,13.06005 65.68086,14.14062 113.33934,3.16134 3.28127,-0.76028 165.87455,-43.92333 361.32024,-95.91842 195.4457,-52.0002 355.38236,-94.51158 355.40736,-94.47658 0.055,0.0451 -454.07635,194.37066 -689.82265,295.18472 -37.33446,15.96119 -47.31801,19.99388 -64.86983,26.15626 -44.86739,15.7561 -85.05859,23.27438 -117.54617,21.98391 -29.21132,-1.16048 -53.11038,-9.15448 -71.79761,-24.0002 -3.56638,-2.83604 -12.06333,-11.33949 -14.91443,-14.92592 -7.57794,-9.52862 -12.73038,-18.80266 -16.16671,-29.09166 -10.5741,-31.67228 -5.13256,-73.2337 15.56546,-118.84632 17.72186,-39.05014 45.06775,-77.78009 92.77623,-131.42086 7.02773,-7.89315 27.95516,-30.97583 28.09022,-30.97583 z"
   id="path4167"
   inkscape:connector-curvature="0" />
</svg>